<?xml version="1.0" encoding="utf-8"?>
<!-- Generator: Adobe Illustrator 21.0.0, SVG Export Plug-In . SVG Version: 6.00 Build 0)  -->
<svg version="1.1" id="Layer_1" xmlns="http://www.w3.org/2000/svg" xmlns:xlink="http://www.w3.org/1999/xlink" x="0px" y="0px"
	 viewBox="0 0 156.3 168.3" style="enable-background:new 0 0 156.3 168.3;" xml:space="preserve">
<path d="M81.5,0c1.1,0.1,2.3,0.2,3.4,0.4c9.1,1,17.5,4,25.1,9c13.3,8.7,22.1,20.7,25.6,36.3c4.5,20.1-0.3,38.1-14.1,53.4
	c-8.8,9.8-19.9,15.8-32.8,18.1c-17.6,3-33.5-0.9-47.5-12c-10.8-8.6-17.7-19.7-20.7-33.2c-2.9-13.3-1.6-26.2,4.4-38.4
	c8.3-16.8,21.6-27.4,39.8-32c3.1-0.8,6.4-1.2,9.6-1.4c0.2,0,0.3-0.1,0.5-0.1C77,0,79.2,0,81.5,0z M49.9,60.5c1-1.4,1.8-2.8,2.8-4
	c4.6-5.8,10.4-9,17.9-8.9c5.2,0.1,10.4,0.1,15.5,0c1.7,0,3.4-0.2,5-0.6c8.7-2.3,13.8-8.1,15.6-16.9c0.2-0.8,0.2-1.6,0.4-2.4
	c-0.4,0-0.7,0-1,0c-11.5,0-22.9,0-34.4,0c-0.7,0-1.4,0-2,0c-7.1,0.5-12.7,3.8-16.6,9.8c-1.7,2.7-2.9,5.7-3,9c-0.1,4-0.1,8-0.2,12
	C49.9,59.2,49.9,59.9,49.9,60.5z M49.8,90.7c0.4,0,0.6,0,0.9,0c11.8,0,23.6,0.1,35.4,0c7.9-0.1,14-3.7,18-10.4
	c1.5-2.5,2.5-5.2,2.6-8.2c0.1-4.2,0.1-8.4,0.2-12.6c0-0.5,0-1,0-1.5c-0.2,0.1-0.3,0.2-0.4,0.4c-1.4,2.5-3.1,4.7-5.2,6.6
	c-4,3.8-8.7,5.8-14.3,5.8c-5.3,0-10.6,0-15.9,0c-4.9,0-9.4,1.4-13.3,4.4C52.8,79.1,50.5,84.4,49.8,90.7z"/>
<path d="M0,157.6c1.3-0.3,2.7-0.6,4-0.9c1.7-0.4,3.3-0.8,5-1.2c0.2,0,0.5,0,0.6,0.2c1,1.9,2.6,2.7,4.6,3c1.5,0.3,3,0.2,4.5-0.2
	c0.5-0.2,1-0.4,1.5-0.7c0.9-0.7,0.9-2-0.2-2.4c-1.2-0.5-2.4-0.9-3.7-1.1c-2.7-0.4-5.3-0.7-7.8-1.8c-6.4-2.6-8.6-10.3-4.6-15.7
	c1.8-2.3,4.3-3.6,7.1-4.3c4.2-1,8.4-0.9,12.5,0.8c2.8,1.2,4.9,3.1,6.2,5.9c0.3,0.5,0.5,1.1,0.8,1.6c0,0,0,0.1,0,0.2
	c-0.5,0.1-1,0.3-1.5,0.4c-2.4,0.6-4.8,1.3-7.2,1.9c-0.2,0.1-0.5,0.1-0.6-0.1c-1.7-1.7-3.7-2.2-6-2.1c-0.7,0-1.4,0.2-2.1,0.4
	c-0.6,0.1-1.1,0.5-1.1,1.2c0,0.7,0.5,1,1,1.1c1.3,0.3,2.6,0.6,3.9,0.8c2.8,0.4,5.7,0.9,8.3,2.2c3.6,1.8,5.4,4.8,5.6,8.8
	c0.2,3.9-1,7.1-4.2,9.5c-1.8,1.4-3.8,2.2-6,2.6c-3.9,0.7-7.7,0.7-11.5-0.5c-3.9-1.2-6.6-3.8-8.2-7.6c-0.2-0.6-0.5-1.1-0.8-1.7
	C0,157.8,0,157.7,0,157.6z"/>
<path d="M123.5,168.3c0-12.2,0-24.2,0-36.3c0.2,0,0.5,0,0.7,0c4.8,0,9.6-0.1,14.4,0c5.3,0.1,9.9,1.7,13.4,5.8c2.7,3.1,4,6.9,4.2,11
	c0.3,3.7-0.4,7.3-2.1,10.6c-2.6,5-6.8,7.8-12.3,8.7c-1.2,0.2-2.5,0.3-3.7,0.3c-4.6,0-9.2,0-13.8,0
	C124,168.3,123.8,168.3,123.5,168.3z M133.4,158.5c2.1,0,4.2,0.1,6.3,0c2.2-0.2,4-1.2,5.2-3c1.5-2.2,1.7-4.7,1.3-7.3
	c-0.6-3.7-3.1-6-6.8-6.4c-1.7-0.2-3.4-0.1-5.1-0.1c-0.3,0-0.6,0-0.9,0C133.4,147.3,133.4,152.8,133.4,158.5z"/>
<path d="M34.9,151.1c0.1-6,1.6-10.7,5.4-14.4c3.2-3.1,7.1-4.6,11.4-4.7c5.2-0.2,9.8,1.2,13.5,5c3,3,4.5,6.8,4.9,10.9
	c0.5,4.6-0.4,8.9-2.9,12.8c-2.7,4.2-6.6,6.5-11.5,7.3c-3.8,0.6-7.6,0.3-11.1-1.3c-4.9-2.2-7.8-6.1-9.1-11.2
	C35.2,153.8,35.1,152,34.9,151.1z M60.5,150.1c-0.1,0-0.1,0-0.2,0c0-0.4,0-0.7,0-1.1c-0.3-3.6-2.3-7-6.7-7.4c-3.7-0.4-7,1.1-8.3,5.2
	c-0.6,1.9-0.6,3.9-0.2,5.9c0.3,1.5,0.9,2.8,2,3.9c2.1,2,4.6,2.3,7.3,1.8c2.5-0.4,4.3-1.9,5.1-4.3C60.1,152.8,60.2,151.4,60.5,150.1z
	"/>
<path d="M102.2,158.7c0,3.2,0,6.3,0,9.5c-8.8,0-17.7,0-26.6,0c0-12.1,0-24.1,0-36.3c3.3,0,6.5,0,9.9,0c0,8.9,0,17.8,0,26.8
	C91.1,158.7,96.6,158.7,102.2,158.7z"/>
<path d="M107.9,168.2c0-12.1,0-24.2,0-36.3c3.3,0,6.5,0,9.8,0c0,12.1,0,24.2,0,36.3C114.5,168.2,111.2,168.2,107.9,168.2z"/>
</svg>
